<svg width="26" height="25" viewBox="0 0 26 25" fill="none" xmlns="http://www.w3.org/2000/svg">
<path d="M20.2693 24.2C21.0412 24.2 21.6669 23.5743 21.6669 22.8025C21.6669 22.0306 21.0412 21.4049 20.2693 21.4049C19.4975 21.4049 18.8718 22.0306 18.8718 22.8025C18.8718 23.5743 19.4975 24.2 20.2693 24.2Z" fill="#1E2E31" stroke="#1E2E31" stroke-width="0.25"/>
<path d="M5.56793 24.2C6.33976 24.2 6.96546 23.5743 6.96546 22.8025C6.96546 22.0306 6.33976 21.4049 5.56793 21.4049C4.7961 21.4049 4.17041 22.0306 4.17041 22.8025C4.17041 23.5743 4.7961 24.2 5.56793 24.2Z" fill="#1E2E31" stroke="#1E2E31" stroke-width="0.25"/>
<path d="M25.0159 5.82807L23.3844 14.1243C23.2455 14.9227 22.6901 15.4781 21.9612 15.4781L7.83321 16.1377L6.06288 18.9494H21.3711C22.1695 18.9494 22.829 19.6436 22.829 20.442C22.829 20.7197 22.586 21.0321 22.3083 21.0321C22.0306 21.0321 21.7876 20.7544 21.7876 20.4767C21.7876 20.2684 21.6141 19.9907 21.3711 19.9907H6.20173C5.61162 19.9907 5.19507 19.8866 4.98679 19.5048C4.70909 18.9841 5.05622 18.4981 5.12564 18.394L6.93069 15.5476L2.7652 1.69729C2.69577 1.55844 2.14037 1.1766 0.613024 1.1766C0.613024 1.1766 0.0565833 1.19812 0.235352 0.569131C0.235352 0.569131 0.278743 0.15154 1.13371 0.20465C3.3206 0.308787 3.73714 1.21131 3.80657 1.48901L4.32726 3.22463L23.5927 4.40486C24.3563 4.40486 25.0159 5.02968 25.0159 5.82807ZM23.9745 5.68922C23.9398 5.51565 23.7662 5.34209 23.558 5.34209L4.63967 4.2313L7.90264 15.131L21.9265 14.4368C22.2736 14.4368 22.343 14.0549 22.3777 13.9508L23.9745 5.68922Z" fill="#1E2E31" stroke="#1E2E31" stroke-width="0.4"/>
</svg>
